<?xml version="1.0" encoding="utf-8"?>
<!-- Generator: Adobe Illustrator 23.1.0, SVG Export Plug-In . SVG Version: 6.00 Build 0)  -->
<svg version="1.1"
	 id="svg8" inkscape:export-filename="C:\Users\Gorka\Desktop\TunaInLogo.png" inkscape:export-xdpi="95.999992" inkscape:export-ydpi="95.999992" inkscape:version="0.92.4 (5da689c313, 2019-01-14)" sodipodi:docname="TunaInLogo.svg" xmlns:cc="http://creativecommons.org/ns#" xmlns:dc="http://purl.org/dc/elements/1.1/" xmlns:inkscape="http://www.inkscape.org/namespaces/inkscape" xmlns:rdf="http://www.w3.org/1999/02/22-rdf-syntax-ns#" xmlns:sodipodi="http://sodipodi.sourceforge.net/DTD/sodipodi-0.dtd" xmlns:svg="http://www.w3.org/2000/svg"
	 xmlns="http://www.w3.org/2000/svg" xmlns:xlink="http://www.w3.org/1999/xlink" x="0px" y="0px" viewBox="0 0 293.6 419.7"
	 style="enable-background:new 0 0 293.6 419.7;" xml:space="preserve">
<style type="text/css">
	.st0{fill:#463333;}
	.st1{fill:#825E5E;}
	.st2{fill:#F99FC9;}
	.st3{fill-rule:evenodd;clip-rule:evenodd;fill:#463333;}
</style>
<g>
	<path id="path836" inkscape:connector-curvature="0" class="st0" d="M126.9,322.8c-26.6-4.1-50.2-14.4-70.7-30.8
		c-6.5-5.2-21.1-19.4-21.1-20.5c0-0.3,3.1,0.8,7,2.4c15.8,6.5,28.6,8.7,45.2,7.9c23.6-1.1,42.2-8.3,70.5-27.1
		c8.2-5.5,18.9-11.9,23.6-14.3c9.7-4.8,25.2-10.2,33.8-11.6c7.8-1.3,26.5-0.6,32.9,1.1c10,2.7,21.6,8.8,29.1,15.3l1.8,1.5l-2.8,4.7
		c-5.5,9-9.7,14.7-19.8,26.4c-1,1.2-5.3,5.2-9.4,8.9c-21.8,19.4-48.4,31.8-77.8,36.1C159,324.3,136.5,324.3,126.9,322.8L126.9,322.8
		z"/>
	<path id="path834" inkscape:connector-curvature="0" class="st1" d="M67.2,268.2c-25.4-4.8-46.4-18.2-55.3-35.4
		c-3.3-6.3-5.8-12.9-5.1-13.5c0.2-0.2,3.7,0.2,7.7,1c9.2,1.7,39.9,2,49,0.4c25.9-4.6,44.1-10.6,68.3-22.6c6-3,11.2-5.6,11.6-6
		c1.1-0.9,12-5.2,17-6.8c8.7-2.8,17.1-4,28-4c28.5,0,51.4,11.3,71.5,35.4c2.1,2.6,3.9,4.8,3.9,5s-2.4-0.5-5.4-1.6
		c-23.3-8-47.5-6.3-73.9,5c-11.3,4.8-19,9.3-35,19.9c-25.9,17.4-45.6,24.4-67.9,24.2C76.4,269.2,69.9,268.7,67.2,268.2L67.2,268.2z"
		/>
	<path id="path832" inkscape:connector-curvature="0" class="st2" d="M152.5,0l-6,5.9c-3.3,3.2-9.9,9.8-14.7,14.6
		c-5.1,5.2-9.4,8.9-10.5,9.2c-25.2,4.9-48.9,16.1-67.9,32C31.5,80.1,15.9,103,6.8,130.3c-4,12.1-4.5,14-6,26.2
		c-1.3,10-1,35.2,0.3,38.7c0.8,2,0.9,2.1,12.9,5.2c37.6,9.8,91.1-6.1,134.6-40.1c4.4-3.4,5.8-4.1,8.4-4.1c5.7-0.1,16.4-1.7,25.7-3.9
		c10.5-2.5,28.5-9.1,28.5-10.4c0-0.6-10-9.1-18.2-15.6c-2.8-2.2-5.1-4.2-5.1-4.5s1.5-2.3,3.4-4.4c2.4-2.8,5-4.7,8.9-6.6
		c4.9-2.3,6.1-2.6,11.5-2.6c8.2,0,13.1,1.9,18.8,7.2c5.7,5.3,8.5,11.2,8.9,19.1c0.5,9.3-3.3,17.3-13.4,28l-4.5,4.8l3.9,1.3
		c8.9,2.9,27.1,13.6,33.7,19.9c1.1,1.1,2.6,2.4,3.4,3.1c5,4.3,14.9,16.4,20.7,25.2c2.6,3.9,4.9,7,5.1,7c1.3,0,5.3-16,7-27.8
		c2.2-15.2,1-38.1-2.7-54.3c-5.5-23.7-18.8-48.9-34.8-65.6c-2.2-2.3-4.5-4.8-5.3-5.7c-4.9-5.4-18-15.7-27.5-21.3
		c-3.6-2.1-7.7-5.3-9.3-7c-12.8-14-35.4-29.6-56.4-38.7L152.5,0z M149.3,40.2c14.4,0.1,28.7,2.5,42.7,7.3
		c27.9,9.5,54.6,30.1,70.5,54.5c3.5,5.4,11.3,20.4,10.5,20.4c-0.2,0-2.4-1.7-4.7-3.7c-8.5-7.3-25.3-17-35.4-20.3
		c-8.6-2.8-18.3-4-24.9-3.1c-7.3,1.1-13.3,3.1-17.7,6c-5,3.2-6.4,4.6-14.4,14.2c-9.2,10.9-25.6,26.8-37.1,35.8
		c-6.5,5.1-19.8,14-20.3,13.5c-0.2-0.2,0.4-3.1,1.4-6.3c7.7-24.6,2.1-49.6-15-66.7c-4.3-4.3-12.6-10.1-16-11.1
		c-1.5-0.5-1.1,0.2,2.2,3.8c8.9,9.7,14.8,19.5,18.2,30.3c1.5,4.8,1.8,7.1,1.7,16.5c0,9.9-0.2,11.4-2.1,16.9
		c-2.6,7.5-6.4,14.5-10.9,19.9c-10.2,12.4-20.5,17.5-41.4,20.6c-6.9,1-29.3,1.6-31.8,0.8c-0.4-0.1-3.1-0.7-6.1-1.2l-5.3-0.9
		l-0.5-6.7c-1-13.5,1.8-32.8,6.7-47.5c14.8-44.3,51.1-78,95.9-88.9C126.8,41.4,138.1,40.1,149.3,40.2L149.3,40.2z M54.6,118.6
		c-1.5,0-3,0.2-4.1,0.6c-5.3,1.8-9.4,8.9-8.3,14.7c0.9,5,5.3,9.7,10.2,10.8c7.2,1.7,14.3-2.5,16.5-9.7c1.5-5.1-0.7-11-5.5-14.5
		C61.6,119.3,57.9,118.6,54.6,118.6L54.6,118.6z"/>
	<path id="path846" inkscape:connector-curvature="0" sodipodi:nodetypes="ccccccccccccccccc" class="st3" d="M57.5,8.6L54,10
		c-10.8,4.3-20.6,10.7-27.7,21.4l-5.4,8.1l8.3,5.1c5.5,3.4,12.7,7.9,17.4,13.2c4.8-4.2,9.6-8.4,14.7-11.5
		c-4.2-4.7-8.2-7.9-12.9-11.3c2.5-2.2,5.6-4,9-5.6c13.8,6.9,26.2,20.9,33.4,39.1c-6.7,5.6-10.6,14-10.7,22.8
		c0,16.4,13.3,29.7,29.7,29.7s29.7-13.3,29.7-29.7s-13.3-29.7-29.7-29.7c-0.5,0-1.1,0-1.6,0.1c-9.4-23.9-26-42.9-47.2-51.5L57.5,8.6
		z"/>
</g>
<g>
	<g>
		<path class="st2" d="M0,340.8h35.3v18H25.1v60.9h-15v-60.9H0V340.8z"/>
		<path class="st2" d="M44.1,340.8h15.2v55.6c0,2.6,0.6,4.7,1.7,6.2c1.1,1.5,2.7,2.3,4.6,2.3c2,0,3.6-0.8,4.7-2.4
			c1.2-1.6,1.7-3.8,1.7-6.7v-54.9h15.1v51.8c0,7.1-0.8,12.7-2.3,17c-1.5,4.3-3.8,7.4-6.8,9.4c-3,2-7.1,3-12.5,3
			c-7.9,0-13.4-2.4-16.7-7.3c-3.2-4.9-4.8-13.1-4.8-24.8V340.8z"/>
		<path class="st2" d="M100.5,340.8h14.9l18.8,45.5l-0.5-8.5v-37h14.8v78.9h-15.2l-18.4-44.8l0.4,9.8v35h-14.8V340.8z"/>
		<path class="st2" d="M208.1,419.7h-15.4l-2.5-13.2h-15.6l-2.6,13.2h-15.1l17.3-78.9h16.6L208.1,419.7z M187.4,392.3
			c-2.2-11.7-3.9-22.9-5-33.5h-0.2c-1.2,10.9-2.8,22.1-4.9,33.5H187.4z"/>
	</g>
	<g>
		<path class="st0" d="M216.4,340.8h14.8v78.9h-14.8V340.8z"/>
		<path class="st0" d="M245.6,340.8h14.9l18.8,45.5l-0.5-8.5v-37h14.8v78.9h-15.2L260,374.9l0.4,9.8v35h-14.8V340.8z"/>
	</g>
</g>
</svg>
