<?xml version="1.0" encoding="utf-8"?>
<!-- Generator: Adobe Illustrator 23.1.0, SVG Export Plug-In . SVG Version: 6.00 Build 0)  -->
<svg version="1.1"
	 id="svg8" inkscape:export-filename="C:\Users\Gorka\Desktop\TunaInLogo.png" inkscape:export-xdpi="95.999992" inkscape:export-ydpi="95.999992" inkscape:version="0.92.4 (5da689c313, 2019-01-14)" sodipodi:docname="TunaInLogo.svg" xmlns:cc="http://creativecommons.org/ns#" xmlns:dc="http://purl.org/dc/elements/1.1/" xmlns:inkscape="http://www.inkscape.org/namespaces/inkscape" xmlns:rdf="http://www.w3.org/1999/02/22-rdf-syntax-ns#" xmlns:sodipodi="http://sodipodi.sourceforge.net/DTD/sodipodi-0.dtd" xmlns:svg="http://www.w3.org/2000/svg"
	 xmlns="http://www.w3.org/2000/svg" xmlns:xlink="http://www.w3.org/1999/xlink" x="0px" y="0px" viewBox="0 0 375 525"
	 style="enable-background:new 0 0 375 525;" xml:space="preserve">
<style type="text/css">
	.st0{fill:#81B31C;}
	.st1{fill:#509164;}
	.st2{fill:#0B6870;}
	.st3{fill-rule:evenodd;clip-rule:evenodd;fill:#81B31C;}
	.st4{font-family:'TwCenMT-CondensedExtraBold';}
	.st5{font-size:119.8372px;}
</style>
<g id="layer1" transform="translate(-24.547974,-62.963367)" inkscape:groupmode="layer" inkscape:label="Capa 1">
	<g id="g883" transform="translate(3.8478713,-42.333333)">
		<g id="g871">
			<path id="path836" inkscape:connector-curvature="0" class="st0" d="M186.8,479.9c-26.6-4.1-50.2-14.4-70.7-30.8
				c-6.5-5.2-21.1-19.4-21.1-20.5c0-0.3,3.1,0.8,7,2.4c15.8,6.5,28.6,8.7,45.2,7.9c23.6-1.1,42.2-8.3,70.5-27.1
				c8.2-5.5,18.9-11.9,23.6-14.3c9.7-4.8,25.2-10.2,33.8-11.6c7.8-1.3,26.5-0.6,32.9,1.1c10,2.7,21.6,8.8,29.1,15.3l1.8,1.5
				l-2.8,4.7c-5.5,9-9.7,14.7-19.8,26.4c-1,1.2-5.3,5.2-9.4,8.9c-21.8,19.4-48.4,31.8-77.8,36.1
				C218.9,481.4,196.4,481.4,186.8,479.9L186.8,479.9z"/>
			<path id="path834" inkscape:connector-curvature="0" class="st1" d="M127.1,425.3c-25.4-4.8-46.4-18.2-55.3-35.4
				c-3.3-6.3-5.8-12.9-5.1-13.5c0.2-0.2,3.7,0.2,7.7,1c9.2,1.7,39.9,2,49,0.4c25.9-4.6,44.1-10.6,68.3-22.6c6-3,11.2-5.6,11.6-6
				c1.1-0.9,12-5.2,17-6.8c8.7-2.8,17.1-4,28-4c28.5,0,51.4,11.3,71.5,35.4c2.1,2.6,3.9,4.8,3.9,5c0,0.2-2.4-0.5-5.4-1.6
				c-23.3-8-47.5-6.3-73.9,5c-11.3,4.8-19,9.3-35,19.9c-25.9,17.4-45.6,24.4-67.9,24.2C136.3,426.3,129.8,425.8,127.1,425.3
				L127.1,425.3z"/>
			<path id="path832" inkscape:connector-curvature="0" class="st2" d="M212.4,157.1l-6,5.9c-3.3,3.2-9.9,9.8-14.7,14.6
				c-5.1,5.2-9.4,8.9-10.5,9.2c-25.2,4.9-48.9,16.1-67.9,32c-21.9,18.4-37.5,41.3-46.6,68.6c-4,12.1-4.5,14-6,26.2
				c-1.3,10-1,35.2,0.3,38.7c0.8,2,0.9,2.1,12.9,5.2c37.6,9.8,91.1-6.1,134.6-40.1c4.4-3.4,5.8-4.1,8.4-4.1
				c5.7-0.1,16.4-1.7,25.7-3.9c10.5-2.5,28.5-9.1,28.5-10.4c0-0.6-10-9.1-18.2-15.6c-2.8-2.2-5.1-4.2-5.1-4.5c0-0.3,1.5-2.3,3.4-4.4
				c2.4-2.8,5-4.7,8.9-6.6c4.9-2.3,6.1-2.6,11.5-2.6c8.2,0,13.1,1.9,18.8,7.2c5.7,5.3,8.5,11.2,8.9,19.1c0.5,9.3-3.3,17.3-13.4,28
				l-4.5,4.8l3.9,1.3c8.9,2.9,27.1,13.6,33.7,19.9c1.1,1.1,2.6,2.4,3.4,3.1c5,4.3,14.9,16.4,20.7,25.2c2.6,3.9,4.9,7,5.1,7
				c1.3,0,5.3-16,7-27.8c2.2-15.2,1-38.1-2.7-54.3c-5.5-23.7-18.8-48.9-34.8-65.6c-2.2-2.3-4.5-4.8-5.3-5.7
				c-4.9-5.4-18-15.7-27.5-21.3c-3.6-2.1-7.7-5.3-9.3-7c-12.8-14-35.4-29.6-56.4-38.7L212.4,157.1z M209.2,197.3
				c14.4,0.1,28.7,2.5,42.7,7.3c27.9,9.5,54.6,30.1,70.5,54.5c3.5,5.4,11.3,20.4,10.5,20.4c-0.2,0-2.4-1.7-4.7-3.7
				c-8.5-7.3-25.3-17-35.4-20.3c-8.6-2.8-18.3-4-24.9-3.1c-7.3,1.1-13.3,3.1-17.7,6c-5,3.2-6.4,4.6-14.4,14.2
				c-9.2,10.9-25.6,26.8-37.1,35.8c-6.5,5.1-19.8,14-20.3,13.5c-0.2-0.2,0.4-3.1,1.4-6.3c7.7-24.6,2.1-49.6-15-66.7
				c-4.3-4.3-12.6-10.1-16-11.1c-1.5-0.5-1.1,0.2,2.2,3.8c8.9,9.7,14.8,19.5,18.2,30.3c1.5,4.8,1.8,7.1,1.7,16.5
				c0,9.9-0.2,11.4-2.1,16.9c-2.6,7.5-6.4,14.5-10.9,19.9c-10.2,12.4-20.5,17.5-41.4,20.6c-6.9,1-29.3,1.6-31.8,0.8
				c-0.4-0.1-3.1-0.7-6.1-1.2l-5.3-0.9l-0.5-6.7c-1-13.5,1.8-32.8,6.7-47.5c14.8-44.3,51.1-78,95.9-88.9
				C186.7,198.5,198,197.2,209.2,197.3L209.2,197.3z M114.5,275.7c-1.5,0-3,0.2-4.1,0.6c-5.3,1.8-9.4,8.9-8.3,14.7
				c0.9,5,5.3,9.7,10.2,10.8c7.2,1.7,14.3-2.5,16.5-9.7c1.5-5.1-0.7-11-5.5-14.5C121.5,276.4,117.8,275.7,114.5,275.7L114.5,275.7z"
				/>
			<path id="path846" inkscape:connector-curvature="0" sodipodi:nodetypes="ccccccccccccccccc" class="st3" d="M117.4,165.7
				l-3.5,1.4c-10.8,4.3-20.6,10.7-27.7,21.4l-5.4,8.1l8.3,5.1c5.5,3.4,12.7,7.9,17.4,13.2c4.8-4.2,9.6-8.4,14.7-11.5
				c-4.2-4.7-8.2-7.9-12.9-11.3c2.5-2.2,5.6-4,9-5.6c13.8,6.9,26.2,20.9,33.4,39.1c-6.7,5.6-10.6,14-10.7,22.8
				c0,16.4,13.3,29.7,29.7,29.7c16.4,0,29.7-13.3,29.7-29.7c0-16.4-13.3-29.7-29.7-29.7c-0.5,0-1.1,0-1.6,0.1
				c-9.4-23.9-26-42.9-47.2-51.5L117.4,165.7z"/>
		</g>
		<g id="g865" transform="translate(-3.3651864)">
			<text transform="matrix(0.8262 0 0 1 64.0858 576.3779)" class="st2 st4 st5">TUNA</text>
			<text transform="matrix(0.8262 0 0 1 272.9383 576.3779)" class="st0 st4 st5">IN</text>
		</g>
	</g>
</g>
</svg>
